<svg xmlns="http://www.w3.org/2000/svg" version="1.1" xmlns:xlink="http://www.w3.org/1999/xlink" xmlns:svgjs="http://svgjs.dev/svgjs" width="1500" height="234" viewBox="0 0 1500 234"><g transform="matrix(1,0,0,1,-0.9090909090907644,-1.386599460102289)"><svg viewBox="0 0 396 62" data-background-color="#ffffff" preserveAspectRatio="xMidYMid meet" height="234" width="1500" xmlns="http://www.w3.org/2000/svg" xmlns:xlink="http://www.w3.org/1999/xlink"><g id="tight-bounds" transform="matrix(1,0,0,1,0.23999999999995225,0.36738960053992287)"><svg viewBox="0 0 395.52 61.265220798920154" height="61.265220798920154" width="395.52"><g><svg viewBox="0 0 538.6345162834799 83.43336005771377" height="61.265220798920154" width="395.52"><g><rect width="4.75108107087228" height="83.43336005771377" x="125.92605021032418" y="0" fill="#b19dd0" opacity="1" stroke-width="0" stroke="transparent" fill-opacity="1" class="rect-yte-0" data-fill-palette-color="primary" rx="1%" id="yte-0" data-palette-color="#b19dd0"></rect></g><g transform="matrix(1,0,0,1,143.11451628347993,0.2075456717853541)"><svg viewBox="0 0 395.52 83.01826871414306" height="83.01826871414306" width="395.52"><g id="textblocktransform"><svg viewBox="0 0 395.52 83.01826871414306" height="83.01826871414306" width="395.52" id="textblock"><g><svg viewBox="0 0 395.52 52.68381793271427" height="52.68381793271427" width="395.52"><g transform="matrix(1,0,0,1,0,0)"><svg width="395.52" viewBox="4.1 -35.3 328.41999999999996 43.75" height="52.68381793271427" data-palette-color="#b19dd0"><path d="M6.55 0.1L6.15 0.1Q5.05 0.1 4.58-0.2 4.1-0.5 4.1-1L4.1-1 4.1-34Q4.1-34.55 4.58-34.83 5.05-35.1 6.15-35.1L6.15-35.1 7.25-35.1Q9.4-35.1 9.75-34.2L9.75-34.2 15.95-18.55Q16.2-17.95 16.43-17.35 16.65-16.75 16.75-16.15L16.75-16.15Q16.85-16.75 17.1-17.35 17.35-17.95 17.55-18.55L17.55-18.55 23.75-34.2Q24.15-35.1 26.25-35.1L26.25-35.1 27.35-35.1Q28.5-35.1 28.95-34.83 29.4-34.55 29.4-34L29.4-34 29.4-1Q29.4-0.5 28.95-0.2 28.5 0.1 27.35 0.1L27.35 0.1 26.95 0.1Q25.85 0.1 25.38-0.2 24.9-0.5 24.9-1L24.9-1 24.9-22.9Q24.9-23.8 24.98-24.68 25.05-25.55 25.15-26.45L25.15-26.45 24.95-26.55Q24.6-25.7 24.33-24.85 24.05-24 23.65-23.1L23.65-23.1 19.6-13Q19.35-12.35 18.73-12.15 18.1-11.95 17.1-11.95L17.1-11.95 16.4-11.95Q15.45-11.95 14.8-12.15 14.15-12.35 13.9-13L13.9-13 9.85-23.1Q9.5-24 9.2-24.85 8.9-25.7 8.55-26.55L8.55-26.55 8.35-26.45Q8.45-25.55 8.53-24.68 8.6-23.8 8.6-22.9L8.6-22.9 8.6-1Q8.6-0.5 8.15-0.2 7.7 0.1 6.55 0.1L6.55 0.1ZM36.35 0.1L35.55 0.1Q33.7 0.1 33.7-0.75L33.7-0.75Q33.7-0.9 33.72-1.05 33.75-1.2 33.8-1.4L33.8-1.4 42.95-34.15Q43.25-35.1 44.95-35.1L44.95-35.1 46.55-35.1Q48.25-35.1 48.55-34.15L48.55-34.15 57.65-1.4Q57.7-1.2 57.75-1.05 57.8-0.9 57.8-0.75L57.8-0.75Q57.8 0.1 55.95 0.1L55.95 0.1 55.1 0.1Q54.4 0.1 53.9-0.08 53.4-0.25 53.3-0.7L53.3-0.7 51.1-9 40.4-9 38.15-0.7Q38.05-0.25 37.55-0.08 37.05 0.1 36.35 0.1L36.35 0.1ZM45.05-26.4L45.05-26.4 41.35-12.7 50.1-12.7 46.45-26.4Q46.25-27.1 46.12-27.93 46-28.75 45.9-29.45L45.9-29.45 45.65-29.45Q45.5-28.75 45.37-27.93 45.25-27.1 45.05-26.4ZM64.55 0.1L64.15 0.1Q63.05 0.1 62.57-0.2 62.1-0.5 62.1-1L62.1-1 62.1-34Q62.1-34.55 62.57-34.83 63.05-35.1 64.15-35.1L64.15-35.1 64.55-35.1Q65.7-35.1 66.15-34.83 66.59-34.55 66.59-34L66.59-34 66.59-19.4 66.8-19.4 76.3-34.25Q76.59-34.75 77.05-34.93 77.5-35.1 78.7-35.1L78.7-35.1 79.09-35.1Q80.05-35.1 80.42-34.95 80.8-34.8 80.8-34.45L80.8-34.45Q80.8-33.95 80.2-33.05L80.2-33.05 70.55-18.1 81.7-1.4Q82-0.9 82-0.55L82-0.55Q82 0.1 80.05 0.1L80.05 0.1 79.09 0.1Q78.5 0.1 78.05 0 77.59-0.1 77.2-0.7L77.2-0.7 66.8-16.35 66.59-16.35 66.59-1Q66.59-0.5 66.15-0.2 65.7 0.1 64.55 0.1L64.55 0.1ZM102.29 0L88.14 0Q86.59 0 86.59-1.5L86.59-1.5 86.59-33.5Q86.59-35 88.14-35L88.14-35 102.29-35Q103.29-35 103.29-33.5L103.29-33.5 103.29-32.7Q103.29-31.2 102.29-31.2L102.29-31.2 91.09-31.2 91.09-19.8 101.14-19.8Q102.14-19.8 102.14-18.3L102.14-18.3 102.14-17.5Q102.14-16 101.14-16L101.14-16 91.09-16 91.09-3.8 102.29-3.8Q103.29-3.8 103.29-2.3L103.29-2.3 103.29-1.5Q103.29 0 102.29 0L102.29 0ZM118.59 0.3L118.59 0.3Q113.19 0.3 110.42-2.25 107.64-4.8 107.64-9.75L107.64-9.75 107.64-34Q107.64-34.55 108.12-34.83 108.59-35.1 109.69-35.1L109.69-35.1 110.09-35.1Q111.24-35.1 111.69-34.83 112.14-34.55 112.14-34L112.14-34 112.14-9.4Q112.14-6.5 113.84-5 115.54-3.5 118.59-3.5L118.59-3.5Q121.59-3.5 123.29-5 124.99-6.5 124.99-9.4L124.99-9.4 124.99-34Q124.99-35.1 127.04-35.1L127.04-35.1 127.44-35.1Q128.59-35.1 129.04-34.83 129.49-34.55 129.49-34L129.49-34 129.49-9.75Q129.49-4.8 126.72-2.25 123.94 0.3 118.59 0.3ZM139.84 0.1L139.44 0.1Q138.34 0.1 137.86-0.2 137.39-0.5 137.39-1L137.39-1 137.39-33.5Q137.39-35 138.94-35L138.94-35 146.29-35Q155.64-35 155.64-24.95L155.64-24.95Q155.64-14.9 146.29-14.9L146.29-14.9 141.89-14.9 141.89-1Q141.89-0.5 141.44-0.2 140.99 0.1 139.84 0.1L139.84 0.1ZM141.89-31.2L141.89-18.7 146.29-18.7Q148.84-18.7 149.96-20.18 151.09-21.65 151.09-24.95L151.09-24.95Q151.09-28.25 149.96-29.73 148.84-31.2 146.29-31.2L146.29-31.2 141.89-31.2ZM174.09 0.1L172.94 0.1Q171.44 0.1 171.44-1L171.44-1 171.44-8.35 158.89-8.35Q158.49-8.35 158.19-9.28 157.89-10.2 157.89-10.9L157.89-10.9Q157.89-11.3 157.99-11.45L157.99-11.45 171.39-34.45Q171.59-34.8 172.09-34.95 172.59-35.1 173.09-35.1L173.09-35.1 174.09-35.1Q175.59-35.1 175.59-34L175.59-34 175.59-11.95 178.39-11.95Q179.39-11.95 179.39-10.45L179.39-10.45 179.39-9.85Q179.39-8.35 178.39-8.35L178.39-8.35 175.59-8.35 175.59-1Q175.59 0.1 174.09 0.1L174.09 0.1ZM171.89-27.95L171.89-27.95 171.69-28.05 162.39-11.95 171.44-11.95 171.44-21.85Q171.44-23.3 171.56-24.93 171.69-26.55 171.89-27.95ZM196.08 0.3L196.08 0.3Q190.68 0.3 187.91-2.25 185.13-4.8 185.13-9.75L185.13-9.75 185.13-34Q185.13-34.55 185.61-34.83 186.08-35.1 187.18-35.1L187.18-35.1 187.58-35.1Q188.73-35.1 189.18-34.83 189.63-34.55 189.63-34L189.63-34 189.63-9.4Q189.63-6.5 191.33-5 193.03-3.5 196.08-3.5L196.08-3.5Q199.08-3.5 200.78-5 202.48-6.5 202.48-9.4L202.48-9.4 202.48-34Q202.48-35.1 204.53-35.1L204.53-35.1 204.93-35.1Q206.08-35.1 206.53-34.83 206.98-34.55 206.98-34L206.98-34 206.98-9.75Q206.98-4.8 204.21-2.25 201.43 0.3 196.08 0.3ZM217.33 0.1L216.93 0.1Q215.83 0.1 215.36-0.2 214.88-0.5 214.88-1L214.88-1 214.88-34Q214.88-35.1 216.88-35.1L216.88-35.1 217.93-35.1Q218.78-35.1 219.28-34.9 219.78-34.7 220.03-34.15L220.03-34.15 230.43-12.2Q230.78-11.55 231.13-10.58 231.48-9.6 231.68-8.8L231.68-8.8 231.88-8.85Q231.83-9.35 231.76-10.33 231.68-11.3 231.68-12.25L231.68-12.25 231.68-34Q231.68-34.55 232.16-34.83 232.63-35.1 233.73-35.1L233.73-35.1 234.13-35.1Q235.28-35.1 235.73-34.83 236.18-34.55 236.18-34L236.18-34 236.18-1Q236.18 0.1 234.18 0.1L234.18 0.1 232.93 0.1Q231.48 0.1 231.03-0.8L231.03-0.8 220.58-22.8Q220.28-23.45 219.96-24.4 219.63-25.35 219.38-26.2L219.38-26.2 219.18-26.15Q219.28-25.5 219.33-24.55 219.38-23.6 219.38-22.75L219.38-22.75 219.38-1Q219.38-0.5 218.93-0.2 218.48 0.1 217.33 0.1L217.33 0.1ZM246.88 0.1L246.48 0.1Q245.38 0.1 244.9-0.2 244.43-0.5 244.43-1L244.43-1 244.43-34Q244.43-34.55 244.9-34.83 245.38-35.1 246.48-35.1L246.48-35.1 246.88-35.1Q248.03-35.1 248.48-34.83 248.93-34.55 248.93-34L248.93-34 248.93-1Q248.93-0.5 248.48-0.2 248.03 0.1 246.88 0.1L246.88 0.1ZM280.23 8.45L280.23 8.45Q279.88 8.45 278.65 7.9 277.43 7.35 275.65 6.45 273.88 5.55 271.88 4.5 269.88 3.45 267.95 2.4 266.03 1.35 264.53 0.5 263.03-0.35 262.28-0.8L262.28-0.8Q258.78-2.45 256.95-6.63 255.13-10.8 255.13-17.6L255.13-17.6Q255.13-26.7 258.38-31 261.63-35.3 267.68-35.3L267.68-35.3Q273.73-35.3 276.95-31 280.18-26.7 280.18-17.6L280.18-17.6Q280.18-10 277.93-5.7 275.68-1.4 271.43-0.2L271.43-0.2 271.43-0.05 281.63 4.3Q282.23 4.5 282.23 5.1L282.23 5.1Q282.23 5.6 281.98 6.4 281.73 7.2 281.28 7.83 280.83 8.45 280.23 8.45ZM267.68-3.5L267.68-3.5Q271.78-3.5 273.7-6.93 275.63-10.35 275.63-17.6L275.63-17.6Q275.63-24.75 273.7-28.13 271.78-31.5 267.68-31.5L267.68-31.5Q263.58-31.5 261.63-28.13 259.68-24.75 259.68-17.6L259.68-17.6Q259.68-10.35 261.63-6.93 263.58-3.5 267.68-3.5ZM297.02 0.3L297.02 0.3Q291.62 0.3 288.85-2.25 286.07-4.8 286.07-9.75L286.07-9.75 286.07-34Q286.07-34.55 286.55-34.83 287.02-35.1 288.12-35.1L288.12-35.1 288.52-35.1Q289.67-35.1 290.12-34.83 290.57-34.55 290.57-34L290.57-34 290.57-9.4Q290.57-6.5 292.27-5 293.97-3.5 297.02-3.5L297.02-3.5Q300.02-3.5 301.72-5 303.42-6.5 303.42-9.4L303.42-9.4 303.42-34Q303.42-35.1 305.47-35.1L305.47-35.1 305.87-35.1Q307.02-35.1 307.47-34.83 307.92-34.55 307.92-34L307.92-34 307.92-9.75Q307.92-4.8 305.15-2.25 302.37 0.3 297.02 0.3ZM331.52 0L317.37 0Q315.82 0 315.82-1.5L315.82-1.5 315.82-33.5Q315.82-35 317.37-35L317.37-35 331.52-35Q332.52-35 332.52-33.5L332.52-33.5 332.52-32.7Q332.52-31.2 331.52-31.2L331.52-31.2 320.32-31.2 320.32-19.8 330.37-19.8Q331.37-19.8 331.37-18.3L331.37-18.3 331.37-17.5Q331.37-16 330.37-16L330.37-16 320.32-16 320.32-3.8 331.52-3.8Q332.52-3.8 332.52-2.3L332.52-2.3 332.52-1.5Q332.52 0 331.52 0L331.52 0Z" opacity="1" transform="matrix(1,0,0,1,0,0)" fill="#b19dd0" class="wordmark-text-0" data-fill-palette-color="primary" id="text-0"></path></svg></g></svg></g><g transform="matrix(1,0,0,1,0,65.12120293499773)"><svg viewBox="0 0 375.74399999999997 17.89706577914534" height="17.89706577914534" width="375.74399999999997"><g transform="matrix(1,0,0,1,0,0)"><svg width="375.74399999999997" viewBox="-0.83 -37.04 777.5 37.04" height="17.89706577914534" data-palette-color="#b19dd0"><path d="M5.62-6.2L5.62-32.86-0.83-32.86Q-0.73-33.72-0.35-34.47 0.02-35.23 0.6-35.8 1.17-36.38 1.9-36.71 2.64-37.04 3.44-37.04L3.44-37.04 11.45-37.04 11.45-4.2 20.48-4.2 20.48-37.04 26.34-37.04 26.34-4.2 35.38-4.2 35.38-37.04 41.21-37.04 41.21-6.2Q41.21-4.91 40.84-3.78 40.48-2.66 39.84-1.82 39.21-0.98 38.37-0.49 37.52 0 36.55 0L36.55 0 27.44 0Q26.25 0 25.17-0.82 24.1-1.64 23.39-3.03L23.39-3.03Q22.68-1.64 21.61-0.82 20.53 0 19.34 0L19.34 0 10.28 0Q9.33 0 8.47-0.49 7.62-0.98 6.98-1.82 6.35-2.66 5.98-3.78 5.62-4.91 5.62-6.2L5.62-6.2ZM51.71-6.15L51.71-13.77 46.21-13.77Q46.29-14.58 46.63-15.3 46.97-16.02 47.52-16.54 48.07-17.07 48.76-17.38 49.46-17.7 50.24-17.7L50.24-17.7 51.71-17.7 51.71-30.81Q51.71-32.1 52.06-33.24 52.41-34.38 53.04-35.22 53.66-36.06 54.5-36.54 55.34-37.01 56.3-37.01L56.3-37.01 71.63-37.01 71.63-32.89 57.57-32.89 57.57-17.7 67.23-17.7 67.23-13.77 57.57-13.77 57.57-4.17 73.8-4.17Q73.7-3.32 73.33-2.55 72.95-1.78 72.37-1.22 71.8-0.66 71.07-0.33 70.33 0 69.53 0L69.53 0 56.35 0Q55.37 0 54.53-0.49 53.68-0.98 53.06-1.81 52.44-2.64 52.07-3.76 51.71-4.88 51.71-6.15L51.71-6.15ZM96.5 0L96.5-13.79 90.67-13.79Q90.76-14.67 91.14-15.43 91.52-16.19 92.09-16.75 92.67-17.31 93.4-17.64 94.13-17.97 94.94-17.97L94.94-17.97 96.5-17.97 96.5-37.01 102.31-37.01 102.31-17.97 115.47-17.97 115.47-37.01 121.33-37.01 121.33 0 115.47 0 115.47-13.79 102.31-13.79 102.31 0 96.5 0ZM129.92 0L131.51-9.3 125.87-9.3Q125.97-10.16 126.34-10.91 126.72-11.67 127.3-12.24 127.87-12.82 128.6-13.15 129.34-13.48 130.14-13.48L130.14-13.48 132.24-13.48 135.49-32.4Q135.66-33.4 136.14-34.25 136.61-35.11 137.26-35.72 137.91-36.33 138.69-36.67 139.47-37.01 140.25-37.01L140.25-37.01 146.18-37.01Q146.94-37.01 147.72-36.67 148.5-36.33 149.16-35.71 149.82-35.08 150.3-34.24 150.77-33.4 150.94-32.37L150.94-32.37 156.51 0 150.67 0 149.16-9.3 137.17-9.3 135.68 0 129.92 0ZM137.83-13.48L148.5-13.48 145.38-32.89 140.91-32.89Q140.13-28.15 139.37-23.28 138.61-18.41 137.83-13.48L137.83-13.48ZM171.33 0L162.51-32.84 157.97-32.84Q158.07-33.69 158.45-34.45 158.83-35.21 159.4-35.78 159.97-36.35 160.71-36.68 161.44-37.01 162.24-37.01L162.24-37.01 167.44-37.01 175.26-3.71 182.85-37.01 188.76-37.01 179.19 0 171.33 0ZM196.66-6.15L196.66-13.77 191.17-13.77Q191.24-14.58 191.59-15.3 191.93-16.02 192.48-16.54 193.03-17.07 193.72-17.38 194.42-17.7 195.2-17.7L195.2-17.7 196.66-17.7 196.66-30.81Q196.66-32.1 197.02-33.24 197.37-34.38 198-35.22 198.62-36.06 199.46-36.54 200.3-37.01 201.25-37.01L201.25-37.01 216.59-37.01 216.59-32.89 202.52-32.89 202.52-17.7 212.19-17.7 212.19-13.77 202.52-13.77 202.52-4.17 218.76-4.17Q218.66-3.32 218.28-2.55 217.9-1.78 217.33-1.22 216.76-0.66 216.03-0.33 215.29 0 214.49 0L214.49 0 201.3 0Q200.33 0 199.48-0.49 198.64-0.98 198.02-1.81 197.4-2.64 197.03-3.76 196.66-4.88 196.66-6.15L196.66-6.15ZM242.56 0L242.56 0Q242.66-0.85 243.03-1.61 243.41-2.37 243.99-2.94 244.56-3.52 245.29-3.85 246.02-4.17 246.83-4.17L246.83-4.17 258.55-4.17 258.55-15.09 251.13-10.6Q250.64-10.28 249.92-10.08 249.2-9.89 248.61-9.91L248.61-9.91 245.85-9.91Q244.88-9.91 244-10.4 243.12-10.89 242.46-11.72 241.8-12.55 241.41-13.67 241.02-14.79 241.02-16.06L241.02-16.06 241.02-32.84 235.84-32.84Q235.94-33.69 236.32-34.45 236.7-35.21 237.3-35.78 237.9-36.35 238.68-36.68 239.46-37.01 240.36-37.01L240.36-37.01 246.88-37.01 246.88-14.11 249.15-14.11 258.55-19.9 258.55-37.01 264.36-37.01 264.36-6.13Q264.36-4.88 263.99-3.77 263.63-2.66 263-1.82 262.38-0.98 261.53-0.49 260.67 0 259.72 0L259.72 0 242.56 0ZM273.88-6.15L273.88-30.81Q273.88-32.1 274.25-33.24 274.61-34.38 275.23-35.22 275.86-36.06 276.69-36.54 277.52-37.01 278.47-37.01L278.47-37.01 292.63-37.01Q293.58-37.01 294.44-36.54 295.29-36.06 295.91-35.22 296.54-34.38 296.9-33.24 297.27-32.1 297.27-30.81L297.27-30.81 297.27-6.15Q297.27-4.88 296.9-3.76 296.54-2.64 295.9-1.81 295.27-0.98 294.42-0.49 293.58 0 292.63 0L292.63 0 278.47 0Q277.52 0 276.69-0.49 275.86-0.98 275.23-1.81 274.61-2.64 274.25-3.76 273.88-4.88 273.88-6.15L273.88-6.15ZM279.71-4.17L291.46-4.17 291.46-32.89 279.71-32.89 279.71-4.17ZM307.03-6.15L307.03-37.01 312.89-37.01 312.89-4.44 315.16-4.44 324.56-11.87 324.56-37.01 330.37-37.01 330.37-4.2 335.25-4.2Q335.16-3.32 334.78-2.56 334.4-1.81 333.83-1.23 333.25-0.66 332.52-0.33 331.79 0 330.98 0L330.98 0 324.56 0 324.56-7.03 316.82-0.81Q315.89 0 314.67 0L314.67 0 311.86 0Q310.89 0 310.01-0.49 309.13-0.98 308.47-1.81 307.81-2.64 307.42-3.76 307.03-4.88 307.03-6.15L307.03-6.15ZM342.01 0L342.01-13.77 336.57-13.77Q336.64-14.62 337.02-15.38 337.4-16.14 337.97-16.71 338.55-17.29 339.28-17.61 340.01-17.94 340.84-17.94L340.84-17.94 342.01-17.94 342.01-37.01 358.57-37.01Q359.54-37.01 360.45-36.54 361.35-36.06 362.05-35.22 362.74-34.38 363.16-33.24 363.57-32.1 363.57-30.81L363.57-30.81 363.57-21.7Q363.57-19.92 362.77-18.43 361.96-16.94 360.42-16.04L360.42-16.04Q361.5-15.65 362.28-14.94 363.06-14.23 363.57-13.38 364.08-12.52 364.33-11.6 364.57-10.67 364.57-9.84L364.57-9.84 364.55-4.2 370.97-4.2Q370.87-3.32 370.49-2.56 370.11-1.81 369.54-1.23 368.97-0.66 368.23-0.33 367.5 0 366.7 0L366.7 0 363.33 0Q362.37 0 361.53-0.49 360.69-0.98 360.06-1.81 359.42-2.64 359.05-3.76 358.69-4.88 358.69-6.15L358.69-6.15 358.69-13.77 347.8-13.77 347.78 0 342.01 0ZM347.8-17.94L357.79-17.94 357.79-32.84 347.8-32.84 347.8-17.94ZM391.91 0L391.91-13.79 385.76-13.79Q385.83-14.67 386.2-15.43 386.56-16.19 387.14-16.75 387.71-17.31 388.46-17.64 389.2-17.97 390.03-17.97L390.03-17.97 391.91-17.97 391.91-37.01 409.05-37.01Q410.03-37.01 410.93-36.54 411.83-36.06 412.53-35.22 413.22-34.38 413.65-33.24 414.08-32.1 414.08-30.81L414.08-30.81 414.08-21.68Q414.08-19.9 413.27-18.41 412.47-16.92 410.93-16.02L410.93-16.02Q412-15.63 412.78-14.92 413.57-14.21 414.07-13.35 414.57-12.5 414.81-11.57 415.06-10.64 415.06-9.81L415.06-9.81 415.06-6.15Q415.06-4.88 414.69-3.76 414.32-2.64 413.68-1.81 413.03-0.98 412.19-0.49 411.34 0 410.39 0L410.39 0 391.91 0ZM397.7-17.97L408.29-17.97 408.29-32.84 397.7-32.84 397.7-17.97ZM397.7-4.17L409.22-4.17 409.22-13.79 397.7-13.79 397.7-4.17ZM424.82-6.15L424.82-13.77 419.33-13.77Q419.4-14.58 419.74-15.3 420.08-16.02 420.63-16.54 421.18-17.07 421.88-17.38 422.57-17.7 423.35-17.7L423.35-17.7 424.82-17.7 424.82-30.81Q424.82-32.1 425.17-33.24 425.53-34.38 426.15-35.22 426.77-36.06 427.61-36.54 428.46-37.01 429.41-37.01L429.41-37.01 444.74-37.01 444.74-32.89 430.68-32.89 430.68-17.7 440.35-17.7 440.35-13.77 430.68-13.77 430.68-4.17 446.91-4.17Q446.82-3.32 446.44-2.55 446.06-1.78 445.49-1.22 444.91-0.66 444.18-0.33 443.45 0 442.64 0L442.64 0 429.46 0Q428.48 0 427.64-0.49 426.8-0.98 426.17-1.81 425.55-2.64 425.18-3.76 424.82-4.88 424.82-6.15L424.82-6.15ZM451.77 0L453.36-9.3 447.72-9.3Q447.81-10.16 448.19-10.91 448.57-11.67 449.14-12.24 449.72-12.82 450.45-13.15 451.18-13.48 451.99-13.48L451.99-13.48 454.09-13.48 457.34-32.4Q457.51-33.4 457.98-34.25 458.46-35.11 459.11-35.72 459.75-36.33 460.53-36.67 461.32-37.01 462.1-37.01L462.1-37.01 468.03-37.01Q468.79-37.01 469.57-36.67 470.35-36.33 471.01-35.71 471.67-35.08 472.14-34.24 472.62-33.4 472.79-32.37L472.79-32.37 478.36 0 472.52 0 471.01-9.3 459.02-9.3 457.53 0 451.77 0ZM459.68-13.48L470.35-13.48 467.22-32.89 462.76-32.89Q461.97-28.15 461.22-23.28 460.46-18.41 459.68-13.48L459.68-13.48ZM485.09-6.15L485.09-37.01 490.95-37.01 490.95-4.44 493.22-4.44 502.62-11.87 502.62-37.01 508.43-37.01 508.43-4.2 513.31-4.2Q513.22-3.32 512.84-2.56 512.46-1.81 511.89-1.23 511.31-0.66 510.58-0.33 509.85 0 509.04 0L509.04 0 502.62 0 502.62-7.03 494.88-0.81Q493.95 0 492.73 0L492.73 0 489.93 0Q488.95 0 488.07-0.49 487.19-0.98 486.53-1.81 485.87-2.64 485.48-3.76 485.09-4.88 485.09-6.15L485.09-6.15ZM520.76 0L520.76 0Q520.86-0.85 521.23-1.61 521.61-2.37 522.19-2.94 522.76-3.52 523.49-3.85 524.23-4.17 525.03-4.17L525.03-4.17 532.21-4.17 532.21-32.89 521.37-32.89 521.37-24.95 515.53-24.95 515.53-30.81Q515.53-32.1 515.9-33.24 516.27-34.38 516.9-35.22 517.54-36.06 518.37-36.54 519.2-37.01 520.15-37.01L520.15-37.01 543.07-37.01 543.07-32.89 538.02-32.89 538.02-6.18Q538.02-4.91 537.65-3.78 537.29-2.66 536.65-1.82 536.02-0.98 535.19-0.49 534.36 0 533.4 0L533.4 0 520.76 0ZM550.52 0L550.52 0Q550.61-0.85 550.99-1.61 551.37-2.37 551.94-2.94 552.52-3.52 553.25-3.85 553.98-4.17 554.79-4.17L554.79-4.17 566.51-4.17 566.51-15.09 559.09-10.6Q558.6-10.28 557.88-10.08 557.16-9.89 556.57-9.91L556.57-9.91 553.81-9.91Q552.84-9.91 551.96-10.4 551.08-10.89 550.42-11.72 549.76-12.55 549.37-13.67 548.98-14.79 548.98-16.06L548.98-16.06 548.98-32.84 543.8-32.84Q543.9-33.69 544.28-34.45 544.66-35.21 545.26-35.78 545.85-36.35 546.63-36.68 547.42-37.01 548.32-37.01L548.32-37.01 554.84-37.01 554.84-14.11 557.11-14.11 566.51-19.9 566.51-37.01 572.32-37.01 572.32-6.13Q572.32-4.88 571.95-3.77 571.59-2.66 570.96-1.82 570.34-0.98 569.49-0.49 568.63 0 567.68 0L567.68 0 550.52 0ZM599.85 0L599.85 0Q599.95-0.85 600.33-1.61 600.71-2.37 601.28-2.94 601.85-3.52 602.59-3.85 603.32-4.17 604.12-4.17L604.12-4.17 613.08-4.17 613.08-10.11 600.29-16.48Q598.83-17.21 597.95-18.7 597.07-20.19 597.07-22.41L597.07-22.41 597.07-30.81Q597.07-32.1 597.42-33.24 597.78-34.38 598.4-35.22 599.02-36.06 599.85-36.54 600.68-37.01 601.63-37.01L601.63-37.01 615.14-37.01Q616.09-37.01 616.92-36.54 617.75-36.06 618.37-35.22 618.99-34.38 619.36-33.24 619.73-32.1 619.73-30.81L619.73-30.81 619.73-23.58 613.89-23.58 613.89-32.84 602.9-32.84 602.9-21.26 616.14-14.5Q616.77-14.18 617.28-13.62 617.8-13.06 618.16-12.32 618.53-11.57 618.72-10.67 618.92-9.77 618.92-8.79L618.92-8.79 618.92-6.15Q618.92-4.88 618.55-3.76 618.19-2.64 617.56-1.81 616.94-0.98 616.11-0.49 615.28 0 614.33 0L614.33 0 599.85 0ZM629.98-6.15L629.98-13.77 624.48-13.77Q624.56-14.58 624.9-15.3 625.24-16.02 625.79-16.54 626.34-17.07 627.03-17.38 627.73-17.7 628.51-17.7L628.51-17.7 629.98-17.7 629.98-30.81Q629.98-32.1 630.33-33.24 630.68-34.38 631.31-35.22 631.93-36.06 632.77-36.54 633.61-37.01 634.57-37.01L634.57-37.01 649.9-37.01 649.9-32.89 635.84-32.89 635.84-17.7 645.5-17.7 645.5-13.77 635.84-13.77 635.84-4.17 652.07-4.17Q651.97-3.32 651.6-2.55 651.22-1.78 650.64-1.22 650.07-0.66 649.34-0.33 648.6 0 647.8 0L647.8 0 634.62 0Q633.64 0 632.8-0.49 631.95-0.98 631.33-1.81 630.71-2.64 630.34-3.76 629.98-4.88 629.98-6.15L629.98-6.15ZM657.86-6.15L657.86-30.81Q657.86-32.1 658.22-33.24 658.59-34.38 659.22-35.22 659.86-36.06 660.69-36.54 661.52-37.01 662.47-37.01L662.47-37.01 676.04-37.01Q677-37.01 677.84-36.54 678.68-36.06 679.32-35.22 679.95-34.38 680.32-33.24 680.68-32.1 680.68-30.81L680.68-30.81 680.68-21.26 674.87-21.26 674.87-32.89 663.64-32.89 663.64-4.17 682.44-4.17Q682.34-3.32 681.96-2.55 681.59-1.78 681.01-1.22 680.44-0.66 679.71-0.33 678.97 0 678.17 0L678.17 0 662.47 0Q661.52 0 660.69-0.49 659.86-0.98 659.22-1.81 658.59-2.64 658.22-3.76 657.86-4.88 657.86-6.15L657.86-6.15ZM691.18 0L691.18-13.77 685.73-13.77Q685.81-14.62 686.19-15.38 686.56-16.14 687.14-16.71 687.71-17.29 688.44-17.61 689.18-17.94 690.01-17.94L690.01-17.94 691.18-17.94 691.18-37.01 707.73-37.01Q708.71-37.01 709.61-36.54 710.51-36.06 711.21-35.22 711.91-34.38 712.32-33.24 712.74-32.1 712.74-30.81L712.74-30.81 712.74-21.7Q712.74-19.92 711.93-18.43 711.12-16.94 709.59-16.04L709.59-16.04Q710.66-15.65 711.44-14.94 712.22-14.23 712.74-13.38 713.25-12.52 713.49-11.6 713.74-10.67 713.74-9.84L713.74-9.84 713.71-4.2 720.13-4.2Q720.04-3.32 719.66-2.56 719.28-1.81 718.7-1.23 718.13-0.66 717.4-0.33 716.67 0 715.86 0L715.86 0 712.49 0Q711.54 0 710.7-0.49 709.85-0.98 709.22-1.81 708.59-2.64 708.22-3.76 707.85-4.88 707.85-6.15L707.85-6.15 707.85-13.77 696.96-13.77 696.94 0 691.18 0ZM696.96-17.94L706.95-17.94 706.95-32.84 696.96-32.84 696.96-17.94ZM724.89-6.15L724.89-13.77 719.4-13.77Q719.47-14.58 719.81-15.3 720.15-16.02 720.7-16.54 721.25-17.07 721.95-17.38 722.65-17.7 723.43-17.7L723.43-17.7 724.89-17.7 724.89-30.81Q724.89-32.1 725.25-33.24 725.6-34.38 726.22-35.22 726.84-36.06 727.69-36.54 728.53-37.01 729.48-37.01L729.48-37.01 744.81-37.01 744.81-32.89 730.75-32.89 730.75-17.7 740.42-17.7 740.42-13.77 730.75-13.77 730.75-4.17 746.99-4.17Q746.89-3.32 746.51-2.55 746.13-1.78 745.56-1.22 744.98-0.66 744.25-0.33 743.52 0 742.71 0L742.71 0 729.53 0Q728.55 0 727.71-0.49 726.87-0.98 726.25-1.81 725.62-2.64 725.26-3.76 724.89-4.88 724.89-6.15L724.89-6.15ZM754.36 0L754.36 0Q754.45-0.85 754.83-1.61 755.21-2.37 755.78-2.94 756.36-3.52 757.09-3.85 757.82-4.17 758.63-4.17L758.63-4.17 765.81-4.17 765.81-32.89 754.97-32.89 754.97-24.95 749.13-24.95 749.13-30.81Q749.13-32.1 749.5-33.24 749.86-34.38 750.5-35.22 751.13-36.06 751.96-36.54 752.79-37.01 753.75-37.01L753.75-37.01 776.67-37.01 776.67-32.89 771.62-32.89 771.62-6.18Q771.62-4.91 771.25-3.78 770.88-2.66 770.25-1.82 769.62-0.98 768.79-0.49 767.96 0 767 0L767 0 754.36 0Z" opacity="1" transform="matrix(1,0,0,1,0,0)" fill="#b19dd0" class="slogan-text-1" data-fill-palette-color="secondary" id="text-1"></path></svg></g></svg></g></svg></g></svg></g><g transform="matrix(1,0,0,1,0,0.2075456717853541)"><svg viewBox="0 0 113.48866520804073 83.01826871414306" height="83.01826871414306" width="113.48866520804073"><g><svg xmlns="http://www.w3.org/2000/svg" xmlns:xlink="http://www.w3.org/1999/xlink" version="1.0" x="0" y="0" viewBox="5.094 18.809 89.936 65.78922222222222" enable-background="new 0 0 100 100" xml:space="preserve" height="83.01826871414306" width="113.48866520804073" class="icon-icon-0" data-fill-palette-color="accent" id="icon-0"><path d="M28.995 35.49C29.61 35.35 30.21 35.16 30.8 34.943 33.637 39.86 36.06 41.492 36.06 41.492 34.08 38.673 32.891 35.582 32.426 34.232 32.968 33.958 33.496 33.655 34.01 33.319 36.77 37.35 41.496 37.602 41.496 37.602 38.479 36.908 36.266 33.838 35.35 32.35A18 18 0 0 0 36.961 30.913C41.601 34.571 45.653 32.788 45.653 32.788 41.885 32.88 39.29 30.965 38.03 29.753 40.502 26.843 42.337 23.069 43.241 18.809 38.646 24.234 32.531 27.616 25.745 27.616 18.958 27.616 12.845 24.234 8.25 18.809 9.111 22.87 10.827 26.48 13.129 29.33 12.099 30.444 9.346 32.891 5.094 32.788 5.094 32.788 9.39 34.698 14.204 30.584L14.191 30.55C14.656 31.04 15.136 31.51 15.639 31.94 14.939 33.16 12.59 36.833 9.25 37.601 9.25 37.602 14.23 37.326 16.95 32.97 17.43 33.31 17.922 33.626 18.429 33.91 18.066 35.017 16.849 38.416 14.686 41.493 14.686 41.492 17.187 39.808 20.081 34.706 20.633 34.937 21.197 35.13 21.771 35.292 21.658 36.482 21.295 39.81 20.496 42.987 20.497 42.987 22.057 39.62 23.341 35.646 23.77 35.719 24.206 35.774 24.646 35.808L25.324 43.25 26.173 35.844C26.6 35.83 27.023 35.81 27.443 35.76A73 73 0 0 0 30.25 42.987C29.49 39.972 29.126 36.82 28.995 35.49" fill="#b19dd0" data-fill-palette-color="accent"></path><path d="M95.03 32.788C91.261 32.88 88.665 30.965 87.406 29.753 89.879 26.843 91.713 23.069 92.617 18.809 88.023 24.234 81.908 27.616 75.123 27.616 68.334 27.616 62.222 24.234 57.625 18.809 58.487 22.87 60.204 26.48 62.505 29.33 61.475 30.444 58.722 32.891 54.47 32.788 54.47 32.788 58.767 34.698 63.58 30.584L63.568 30.55C64.033 31.04 64.512 31.51 65.015 31.94 64.315 33.16 61.966 36.833 58.627 37.601 58.627 37.602 63.607 37.326 66.327 32.97 66.807 33.31 67.3 33.626 67.805 33.91 67.443 35.017 66.226 38.416 64.063 41.493 64.063 41.492 66.563 39.808 69.458 34.706 70.009 34.937 70.573 35.13 71.147 35.292 71.035 36.482 70.673 39.81 69.874 42.987 69.874 42.987 71.433 39.62 72.717 35.646 73.147 35.719 73.582 35.774 74.022 35.808L74.7 43.25 75.549 35.844C75.976 35.83 76.4 35.81 76.819 35.76A73 73 0 0 0 79.627 42.987C78.867 39.972 78.503 36.82 78.372 35.49 78.985 35.349 79.585 35.16 80.176 34.94 83.014 39.862 85.436 41.493 85.436 41.493 83.456 38.673 82.269 35.582 81.803 34.232A16 16 0 0 0 83.387 33.319C86.147 37.35 90.872 37.602 90.872 37.602 87.855 36.908 85.642 33.838 84.728 32.35A18 18 0 0 0 86.338 30.913C90.978 34.571 95.029 32.788 95.029 32.788" fill="#b19dd0" data-fill-palette-color="accent"></path><path d="M50.063 64.244C42.368 48.797 27.553 69.72 27.553 69.72S47.034 103.196 72.572 69.72C72.573 69.72 57.757 48.797 50.063 64.244M49.547 73.314C46.606 73.314 43.837 72.857 41.369 72.072 43.837 71.282 46.606 70.829 49.547 70.829 52.487 70.829 55.257 71.282 57.724 72.072 55.257 72.857 52.486 73.314 49.547 73.314" fill="#b19dd0" data-fill-palette-color="accent"></path></svg></g></svg></g></svg></g><defs></defs></svg><rect width="395.52" height="61.265220798920154" fill="none" stroke="none" visibility="hidden"></rect></g></svg></g></svg>